<svg xmlns="http://www.w3.org/2000/svg" xmlns:xlink="http://www.w3.org/1999/xlink" width="500" zoomAndPan="magnify" viewBox="0 0 375 374.999991" height="500" preserveAspectRatio="xMidYMid meet" version="1.0"><defs><clipPath id="488fddb3ab"><path d="M 27.65625 59.878906 L 347.222656 59.878906 L 347.222656 370.378906 L 27.65625 370.378906 Z M 27.65625 59.878906 " clip-rule="nonzero"/></clipPath><clipPath id="d1afb2306a"><path d="M 134.648438 4.738281 L 297.941406 4.738281 L 297.941406 103.0625 L 134.648438 103.0625 Z M 134.648438 4.738281 " clip-rule="nonzero"/></clipPath><clipPath id="4718152dd0"><path d="M 137 13 L 297.941406 13 L 297.941406 100 L 137 100 Z M 137 13 " clip-rule="nonzero"/></clipPath></defs><g clip-path="url(#488fddb3ab)"><path fill="#000000" d="M 347.175781 157.410156 L 347.175781 314.917969 C 347.175781 345.546875 322.351562 370.378906 291.71875 370.378906 L 234.914062 273.601562 C 255.5 262.148438 269.4375 240.179688 269.4375 214.953125 C 269.4375 177.902344 239.394531 147.863281 202.335938 147.863281 C 189.375 147.863281 177.273438 151.550781 167.011719 157.914062 L 134.175781 101.957031 L 291.710938 101.957031 C 322.351562 101.957031 347.175781 126.78125 347.175781 157.410156 Z M 202.34375 282.039062 C 165.285156 282.039062 135.242188 252.003906 135.242188 214.953125 C 135.242188 199.171875 140.707031 184.671875 149.832031 173.210938 L 83.140625 59.59375 C 52.511719 59.59375 27.683594 84.425781 27.683594 115.046875 L 27.683594 272.554688 C 27.683594 303.183594 52.511719 328.011719 83.140625 328.011719 L 240.675781 328.011719 L 213.175781 281.160156 C 209.648438 281.722656 206.03125 282.039062 202.34375 282.039062 Z M 202.34375 282.039062 " fill-opacity="1" fill-rule="nonzero"/></g><path fill="#000000" d="M 201.945312 164.671875 C 174.230469 164.671875 151.753906 187.140625 151.753906 214.859375 C 151.753906 242.570312 174.222656 265.042969 201.945312 265.042969 C 229.664062 265.042969 252.140625 242.578125 252.140625 214.859375 C 252.140625 187.144531 229.671875 164.671875 201.945312 164.671875 Z M 201.945312 230.914062 C 193.078125 230.914062 185.886719 223.726562 185.886719 214.859375 C 185.886719 205.988281 193.078125 198.800781 201.945312 198.800781 C 210.816406 198.800781 218.007812 205.988281 218.007812 214.859375 C 218.011719 223.726562 210.824219 230.914062 201.945312 230.914062 Z M 201.945312 230.914062 " fill-opacity="1" fill-rule="nonzero"/><g clip-path="url(#d1afb2306a)"><path fill="#000000" d="M 194.023438 4.710938 C 194.023438 5.46875 194.023438 6.226562 194.023438 6.984375 L 190.066406 6.984375 C 190.066406 7.59375 190.066406 8.203125 190.066406 8.808594 L 190.066406 8.8125 L 186.113281 8.691406 L 186.394531 72.359375 L 180.464844 51.894531 L 177.554688 51.796875 C 177.554688 49.679688 177.554688 47.5625 177.554688 45.441406 L 167.816406 45.441406 C 167.816406 47.453125 167.816406 49.460938 167.816406 51.472656 L 163.515625 51.328125 L 162.382812 38.25 L 161.777344 38.265625 C 161.777344 37.84375 161.777344 37.421875 161.777344 37 L 153.050781 37 C 153.050781 37.480469 153.050781 37.964844 153.050781 38.445312 L 153.046875 38.449219 L 148.824219 38.535156 L 147.316406 61.316406 L 145.332031 61.316406 L 141.304688 61.3125 C 141.304688 63.660156 141.304688 66.003906 141.304688 68.347656 L 134.816406 68.3125 L 134.984375 103.058594 L 338.09375 102.773438 L 337.246094 19.492188 L 336.121094 19.394531 L 336.117188 19.394531 C 336.117188 15.542969 336.117188 11.691406 336.117188 7.835938 L 330.464844 7.835938 C 330.464844 11.527344 330.464844 15.21875 330.464844 18.910156 L 328.582031 18.75 L 328.578125 18.75 C 328.578125 14.363281 328.578125 9.980469 328.578125 5.59375 L 326.566406 5.59375 C 326.566406 9.921875 326.566406 14.25 326.566406 18.578125 L 323.96875 18.355469 L 324.554688 50.847656 L 320.859375 50.84375 C 320.859375 55.695312 320.859375 60.546875 320.859375 65.398438 L 320.855469 65.398438 L 316.90625 65.539062 L 316.90625 47.0625 L 314.367188 47.011719 L 314.363281 47.011719 C 314.363281 44.945312 314.363281 42.875 314.363281 40.808594 L 308.148438 40.808594 C 308.148438 42.835938 308.148438 44.859375 308.148438 46.882812 L 305.328125 46.824219 L 305.324219 46.824219 C 305.324219 44.441406 305.324219 42.058594 305.324219 39.671875 L 305.320312 39.671875 C 306.074219 39.671875 306.832031 39.671875 307.585938 39.671875 C 307.585938 38.441406 307.585938 37.210938 307.585938 35.976562 L 301.652344 35.976562 C 301.652344 37.210938 301.652344 38.441406 301.652344 39.671875 C 302.5 39.671875 303.34375 39.671875 304.191406 39.671875 L 304.195312 39.671875 C 304.195312 42.050781 304.195312 44.425781 304.195312 46.800781 L 303.066406 46.777344 L 303.066406 51.859375 L 301.652344 51.859375 C 301.652344 50.164062 301.652344 48.472656 301.652344 46.777344 L 299.957031 46.777344 C 299.957031 52.367188 299.957031 57.960938 299.957031 63.550781 C 300.523438 63.550781 301.085938 63.550781 301.652344 63.550781 C 301.652344 62.242188 301.652344 60.933594 301.652344 59.625 L 301.648438 59.625 C 302.121094 59.625 302.589844 59.625 303.0625 59.625 L 303.066406 59.625 L 303.066406 86.574219 L 297.703125 86.574219 C 297.703125 84.34375 297.703125 82.117188 297.703125 79.886719 L 292.296875 79.886719 L 292.296875 79.890625 L 291.484375 62.695312 L 289.507812 62.613281 L 289.503906 62.617188 C 289.503906 61.125 289.503906 59.636719 289.503906 58.148438 L 277.359375 58.148438 C 277.359375 57.011719 277.359375 55.875 277.359375 54.738281 L 270.859375 54.738281 C 270.859375 55.875 270.859375 57.011719 270.859375 58.148438 L 266.90625 58.148438 C 266.90625 59.328125 266.90625 60.507812 266.90625 61.6875 L 263.796875 61.558594 L 262.949219 72.929688 L 261.457031 74.316406 C 261.457031 64.917969 261.457031 55.515625 261.457031 46.117188 L 261.453125 46.117188 C 262.011719 46.117188 262.574219 46.117188 263.132812 46.117188 C 263.132812 44.089844 263.132812 42.066406 263.132812 40.039062 L 261.789062 40.039062 C 261.789062 39.140625 261.789062 38.238281 261.789062 37.339844 L 259.777344 37.335938 L 257.761719 37.335938 C 257.761719 38.238281 257.761719 39.140625 257.761719 40.039062 L 255.75 40.039062 C 255.75 42.066406 255.75 44.09375 255.75 46.117188 C 256.53125 46.117188 257.3125 46.117188 258.097656 46.117188 C 258.097656 56.554688 258.097656 66.992188 258.097656 77.429688 L 252.214844 82.878906 L 252.214844 21.765625 L 249.691406 21.582031 L 249.6875 21.582031 C 249.6875 19.84375 249.6875 18.101562 249.6875 16.363281 L 248.265625 16.363281 L 248.261719 16.367188 C 248.261719 14.945312 248.261719 13.523438 248.261719 12.101562 L 246.566406 12.101562 C 246.566406 13.523438 246.566406 14.945312 246.566406 16.363281 L 246.566406 16.367188 L 245.445312 16.363281 L 241.199219 16.363281 C 241.199219 17.894531 241.199219 19.425781 241.199219 20.957031 L 241.199219 20.960938 L 236.679688 20.628906 L 236.679688 62.695312 L 227.894531 62.378906 L 227.894531 62.382812 C 227.894531 60.449219 227.894531 58.519531 227.894531 56.585938 L 220.75 56.585938 L 220.292969 33.703125 L 204.757812 33.136719 L 204.757812 9.257812 L 202.78125 9.199219 C 202.78125 8.460938 202.78125 7.722656 202.78125 6.984375 L 201.652344 6.984375 C 201.652344 6.226562 201.652344 5.46875 201.652344 4.710938 Z M 194.023438 4.710938 " fill-opacity="1" fill-rule="nonzero"/></g><g clip-path="url(#4718152dd0)"><path fill="#ffffff" d="M 189.019531 13.269531 L 189.019531 15.066406 L 190.785156 15.066406 L 190.785156 13.269531 Z M 193.242188 13.609375 L 193.242188 15.390625 L 195.003906 15.390625 L 195.003906 13.609375 Z M 199.488281 15.648438 L 199.488281 17.738281 L 201.253906 17.738281 L 201.253906 15.648438 Z M 189.019531 17.761719 L 189.019531 19.558594 L 190.785156 19.558594 L 190.785156 17.761719 Z M 329.441406 21.933594 L 329.441406 23.597656 L 331.074219 23.601562 L 331.074219 21.933594 Z M 333.65625 21.933594 L 333.65625 23.609375 L 335.285156 23.609375 L 335.285156 21.933594 Z M 193.242188 22.515625 L 193.242188 24.296875 L 195.003906 24.300781 L 195.003906 22.515625 Z M 238.769531 23.878906 L 238.769531 25.363281 L 240.230469 25.363281 L 240.230469 23.878906 Z M 247.847656 24.867188 L 247.847656 26.386719 L 249.308594 26.386719 L 249.308594 24.867188 Z M 329.441406 26.097656 L 329.441406 27.761719 L 331.074219 27.761719 L 331.074219 26.097656 Z M 199.488281 26.097656 L 199.488281 28.1875 L 201.253906 28.1875 L 201.253906 26.097656 Z M 190.785156 26.746094 L 189.019531 26.746094 L 189.019531 28.542969 L 190.785156 28.542969 Z M 193.242188 26.96875 L 193.242188 28.75 L 195.003906 28.753906 L 195.003906 26.96875 Z M 238.769531 27.585938 L 238.769531 29.066406 L 240.230469 29.066406 L 240.230469 27.585938 Z M 244.167969 28.570312 L 244.167969 30.09375 L 245.628906 30.09375 L 245.628906 28.570312 Z M 247.847656 28.667969 L 247.847656 30.1875 L 249.308594 30.191406 L 249.308594 28.667969 Z M 333.65625 30.300781 L 333.65625 31.972656 L 335.285156 31.972656 L 335.285156 30.300781 Z M 189.019531 31.238281 L 189.019531 33.035156 L 190.785156 33.035156 L 190.785156 31.238281 Z M 199.488281 31.320312 L 199.488281 33.410156 L 201.253906 33.414062 L 201.253906 31.320312 Z M 244.167969 32.375 L 244.167969 33.898438 L 245.628906 33.898438 L 245.628906 32.375 Z M 247.847656 32.46875 L 247.847656 33.992188 L 249.308594 33.992188 L 249.308594 32.46875 Z M 329.441406 34.417969 L 329.441406 36.082031 L 331.074219 36.082031 L 331.074219 34.417969 Z M 333.65625 34.480469 L 333.65625 36.15625 L 335.285156 36.15625 L 335.285156 34.480469 Z M 238.769531 34.992188 L 238.769531 36.476562 L 240.230469 36.476562 L 240.230469 34.992188 Z M 200.371094 35.660156 L 200.371094 37.433594 Z M 247.847656 36.269531 L 247.847656 37.792969 L 249.308594 37.792969 L 249.308594 36.269531 Z M 208.230469 36.9375 L 208.230469 39.304688 L 210.582031 39.304688 L 210.582031 36.9375 Z M 206.527344 40.171875 L 208.878906 40.171875 Z M 244.167969 39.988281 L 244.167969 41.507812 L 245.628906 41.511719 L 245.628906 39.988281 Z M 189.019531 40.222656 L 189.019531 42.019531 L 190.785156 42.019531 L 190.785156 40.222656 Z M 193.242188 40.332031 L 193.242188 42.113281 L 195.003906 42.113281 L 195.003906 40.332031 Z M 238.769531 42.402344 L 238.769531 43.882812 L 240.230469 43.882812 L 240.230469 42.402344 Z M 208.230469 42.859375 L 208.230469 45.230469 L 210.582031 45.230469 L 210.582031 42.859375 Z M 244.167969 43.792969 L 244.167969 45.316406 L 245.628906 45.316406 L 245.628906 43.792969 Z M 157.746094 43.988281 L 157.746094 46.320312 L 159.933594 46.320312 L 159.933594 43.988281 Z M 189.019531 44.714844 L 189.019531 46.511719 L 190.785156 46.511719 L 190.785156 44.714844 Z M 193.242188 44.785156 L 193.242188 46.566406 L 195.003906 46.566406 L 195.003906 44.785156 Z M 215.039062 45.851562 L 215.039062 48.503906 L 217.386719 48.503906 L 217.386719 45.851562 Z M 333.65625 47.027344 L 333.65625 48.703125 L 335.285156 48.703125 L 335.285156 47.027344 Z M 244.167969 47.597656 L 244.167969 49.121094 L 245.628906 49.121094 L 245.628906 47.597656 Z M 247.847656 47.675781 L 247.847656 49.195312 L 249.308594 49.195312 L 249.308594 47.675781 Z M 193.242188 49.238281 L 193.242188 51.019531 L 195.003906 51.019531 L 195.003906 49.238281 Z M 208.230469 48.785156 L 208.230469 51.152344 L 210.582031 51.152344 L 210.582031 48.785156 Z M 238.769531 49.808594 L 238.769531 51.292969 L 240.230469 51.292969 L 240.230469 49.808594 Z M 308.71875 49.871094 L 308.71875 51.660156 L 310.351562 51.660156 L 310.347656 49.871094 Z M 312.804688 49.871094 L 312.808594 51.660156 L 314.4375 51.660156 L 314.4375 49.871094 Z M 171.855469 48.722656 L 171.855469 52.058594 L 174.039062 52.058594 L 174.039062 48.722656 Z M 329.441406 51.0625 L 329.441406 52.726562 L 331.074219 52.726562 L 331.074219 51.0625 Z M 333.65625 51.210938 L 333.65625 52.882812 L 335.285156 52.882812 L 335.285156 51.210938 Z M 247.847656 51.476562 L 247.847656 52.996094 L 249.308594 52.996094 L 249.308594 51.476562 Z M 165.585938 53.453125 L 167.769531 53.453125 Z M 238.769531 53.515625 L 238.769531 54.996094 L 240.230469 54.996094 L 240.230469 53.515625 Z M 193.242188 53.691406 L 193.242188 55.472656 L 195.003906 55.476562 L 195.003906 53.691406 Z M 189.019531 53.699219 L 189.019531 55.496094 L 190.785156 55.496094 L 190.785156 53.699219 Z M 304.335938 54.132812 L 304.335938 55.957031 L 305.96875 55.957031 L 305.96875 54.132812 Z M 312.808594 54.34375 L 312.808594 56.136719 L 314.4375 56.136719 L 314.4375 54.34375 Z M 244.167969 55.210938 L 244.167969 56.730469 L 245.628906 56.734375 L 245.628906 55.210938 Z M 247.847656 55.277344 L 247.847656 56.796875 L 249.308594 56.796875 L 249.308594 55.277344 Z M 329.441406 55.222656 L 329.441406 56.890625 L 331.074219 56.890625 L 331.074219 55.222656 Z M 208.230469 54.707031 L 208.230469 57.078125 L 210.582031 57.078125 L 210.582031 54.707031 Z M 157.746094 55.640625 L 157.746094 57.96875 L 159.933594 57.972656 L 159.933594 55.640625 Z M 174.292969 55.960938 L 174.292969 58.15625 L 177.25 58.15625 L 177.25 55.960938 Z M 304.335938 58.6875 L 304.335938 60.511719 L 305.96875 60.511719 L 305.96875 58.6875 Z M 244.167969 59.015625 L 244.167969 60.539062 L 245.628906 60.539062 L 245.628906 59.015625 Z M 247.847656 59.078125 L 247.847656 60.597656 L 249.308594 60.601562 L 249.308594 59.078125 Z M 308.71875 58.820312 L 308.71875 60.609375 L 310.351562 60.609375 L 310.351562 58.820312 Z M 215.039062 59.113281 L 215.039062 61.765625 L 217.386719 61.765625 L 217.386719 59.113281 Z M 238.769531 60.921875 L 238.769531 62.40625 L 240.230469 62.40625 L 240.230469 60.921875 Z M 224.761719 61.0625 L 222.410156 61.132812 L 222.480469 63.53125 L 224.832031 63.460938 Z M 157.746094 61.464844 L 157.746094 63.796875 L 159.933594 63.796875 L 159.933594 61.464844 Z M 193.242188 62.601562 L 193.242188 64.382812 L 195.003906 64.382812 L 195.003906 62.601562 Z M 247.847656 62.878906 L 247.847656 64.402344 L 249.308594 64.402344 L 249.308594 62.878906 Z M 189.019531 62.683594 L 189.019531 64.480469 L 190.785156 64.480469 L 190.785156 62.683594 Z M 308.71875 63.292969 L 308.71875 65.082031 L 310.351562 65.082031 L 310.351562 63.292969 Z M 312.808594 63.292969 L 312.808594 65.085938 L 314.4375 65.085938 L 314.4375 63.292969 Z M 333.65625 63.757812 L 333.65625 65.429688 L 335.285156 65.429688 L 335.285156 63.757812 Z M 171.824219 63.171875 L 171.601562 63.171875 L 171.601562 63.816406 L 171.40625 63.816406 L 171.40625 63.820312 L 171.601562 63.820312 L 171.601562 63.847656 L 170.933594 63.847656 L 170.933594 66.042969 L 173.621094 66.042969 L 173.621094 63.847656 L 171.828125 63.847656 L 171.828125 63.820312 L 173.59375 63.820312 L 173.59375 63.816406 L 171.828125 63.816406 Z M 177.652344 63.847656 L 177.652344 66.042969 L 180.34375 66.042969 L 180.34375 63.847656 Z M 274.417969 64.019531 L 274.417969 66.214844 L 276.726562 66.214844 L 276.726562 64.019531 Z M 285.976562 64.019531 L 285.976562 66.214844 L 288.285156 66.214844 L 288.285156 64.019531 Z M 268.636719 64.019531 L 268.636719 66.214844 L 270.949219 66.214844 L 270.949219 64.019531 Z M 215.039062 65.746094 L 215.039062 68.398438 L 217.386719 68.398438 L 217.386719 65.746094 Z M 208.230469 66.554688 L 208.230469 68.921875 L 210.582031 68.925781 L 210.582031 66.554688 Z M 189.019531 67.175781 L 189.019531 68.972656 L 190.785156 68.972656 L 190.785156 67.175781 Z M 329.441406 67.707031 L 329.441406 69.371094 L 331.074219 69.375 L 331.074219 67.707031 Z M 224.933594 67.058594 L 222.582031 67.128906 L 222.652344 69.527344 L 225.003906 69.457031 Z M 308.71875 67.765625 L 308.71875 69.554688 L 310.351562 69.558594 L 310.351562 67.765625 Z M 312.808594 67.769531 L 312.808594 69.558594 L 314.4375 69.558594 L 314.4375 67.769531 Z M 304.335938 67.800781 L 304.335938 69.625 L 305.96875 69.625 L 305.96875 67.800781 Z M 238.769531 68.332031 L 238.769531 69.8125 L 240.230469 69.816406 L 240.230469 68.332031 Z M 244.167969 70.433594 L 244.167969 71.953125 L 245.628906 71.957031 L 245.628906 70.433594 Z M 286.316406 70.859375 L 286.316406 73.054688 L 289.035156 73.054688 L 289.035156 70.859375 Z M 265.917969 70.859375 L 265.917969 73.054688 L 268.636719 73.058594 L 268.636719 70.859375 Z M 272.714844 70.859375 L 272.714844 73.054688 L 275.4375 73.058594 L 275.4375 70.859375 Z M 193.242188 71.507812 L 193.242188 73.289062 L 195.003906 73.289062 L 195.003906 71.507812 Z M 189.019531 71.667969 L 189.019531 73.464844 L 190.785156 73.464844 L 190.785156 71.667969 Z M 238.769531 72.035156 L 238.769531 73.519531 L 240.230469 73.519531 L 240.230469 72.035156 Z M 329.441406 71.871094 L 329.441406 73.535156 L 331.074219 73.535156 L 331.074219 71.871094 Z M 333.65625 72.121094 L 333.65625 73.792969 L 335.285156 73.796875 L 335.285156 72.121094 Z M 312.808594 72.246094 L 312.808594 74.035156 L 314.4375 74.035156 L 314.4375 72.246094 Z M 304.335938 72.359375 L 304.335938 74.179688 L 305.96875 74.179688 L 305.96875 72.359375 Z M 176.753906 72.859375 L 176.753906 75.054688 L 179.171875 75.054688 L 179.171875 72.859375 Z M 182.800781 72.859375 L 182.800781 75.054688 L 185.21875 75.054688 L 185.21875 72.859375 Z M 157.746094 73.117188 L 157.746094 75.445312 L 159.933594 75.445312 L 159.933594 73.117188 Z M 247.847656 74.285156 L 247.847656 75.804688 L 249.308594 75.804688 L 249.308594 74.285156 Z M 333.65625 76.304688 L 333.65625 77.976562 L 335.285156 77.976562 L 335.285156 76.304688 Z M 137.660156 74.300781 L 137.660156 79.867188 L 141.558594 79.867188 L 141.558594 74.300781 Z M 208.230469 78.402344 L 208.230469 80.769531 L 210.582031 80.773438 L 210.582031 78.402344 Z M 238.769531 79.445312 L 238.769531 80.925781 L 240.230469 80.929688 L 240.230469 79.445312 Z M 225.277344 79.054688 L 222.925781 79.121094 L 222.996094 81.519531 L 225.34375 81.453125 Z M 329.441406 80.191406 L 329.441406 81.855469 L 331.074219 81.855469 L 331.074219 80.191406 Z M 333.65625 80.488281 L 333.65625 82.160156 L 335.285156 82.160156 L 335.285156 80.488281 Z M 262.515625 80.664062 L 262.515625 82.863281 L 265 82.863281 L 265 80.664062 Z M 274.9375 80.664062 L 274.9375 82.863281 L 277.421875 82.863281 L 277.421875 80.664062 Z M 281.148438 80.664062 L 281.148438 82.863281 L 283.632812 82.863281 L 283.632812 80.664062 Z M 287.355469 80.664062 L 287.355469 82.863281 L 289.839844 82.863281 L 289.839844 80.664062 Z M 312.808594 81.195312 L 312.808594 82.984375 L 314.4375 82.984375 L 314.4375 81.195312 Z M 304.335938 81.472656 L 304.335938 83.292969 L 305.96875 83.292969 L 305.96875 81.472656 Z M 244.167969 81.847656 L 244.167969 83.371094 L 245.628906 83.371094 L 245.628906 81.847656 Z M 184.269531 80.871094 L 184.269531 84.789062 L 188.296875 84.789062 L 188.296875 80.871094 Z M 154.042969 80.871094 L 154.042969 84.789062 L 158.074219 84.792969 L 158.074219 80.871094 Z M 174.191406 80.871094 L 174.191406 84.789062 L 178.222656 84.792969 L 178.222656 80.871094 Z M 329.441406 84.351562 L 329.441406 86.015625 L 331.074219 86.019531 L 331.074219 84.351562 Z M 333.65625 84.667969 L 333.65625 86.339844 L 335.285156 86.34375 L 335.285156 84.667969 Z M 304.335938 86.027344 L 304.335938 87.851562 L 305.96875 87.851562 L 305.96875 86.027344 Z M 329.441406 88.515625 L 329.441406 90.179688 L 331.074219 90.179688 L 331.074219 88.515625 Z M 333.65625 88.851562 L 333.65625 90.523438 L 335.285156 90.523438 L 335.285156 88.851562 Z M 244.167969 89.460938 L 244.167969 90.984375 L 245.628906 90.984375 L 245.628906 89.460938 Z M 247.847656 89.488281 L 247.847656 91.007812 L 249.308594 91.011719 L 249.308594 89.488281 Z M 245.550781 92.9375 L 244.246094 93.59375 Z M 162.753906 89.738281 L 162.753906 93.660156 L 167.164062 93.660156 L 167.164062 89.738281 Z M 151.734375 89.738281 L 151.734375 93.660156 L 156.140625 93.660156 L 156.140625 89.738281 Z M 173.777344 89.738281 L 173.777344 93.660156 L 178.183594 93.660156 L 178.183594 89.738281 Z M 329.441406 92.675781 L 329.441406 94.339844 L 331.074219 94.339844 L 331.074219 92.675781 Z M 240.152344 93.933594 L 238.847656 94.589844 Z M 333.65625 93.03125 L 333.65625 94.707031 L 335.285156 94.707031 L 335.285156 93.03125 Z M 331.070312 96.769531 L 329.445312 96.90625 Z M 209.714844 95.050781 L 209.714844 98.972656 L 215.273438 98.972656 L 215.273438 95.050781 Z M 279.125 95.449219 L 279.125 99.367188 L 284.121094 99.367188 L 284.121094 95.449219 Z M 304.105469 95.449219 L 304.105469 99.367188 L 309.101562 99.367188 L 309.101562 95.449219 Z M 304.105469 95.449219 " fill-opacity="1" fill-rule="nonzero"/></g></svg>